<svg xmlns="http://www.w3.org/2000/svg" xmlns:xlink="http://www.w3.org/1999/xlink" width="1440" zoomAndPan="magnify" viewBox="0 0 1080 663.750002" height="885" preserveAspectRatio="xMidYMid meet" version="1.0"><defs><clipPath id="c8e0fe817e"><path d="M 0.203125 0 L 1079.796875 0 L 1079.796875 663.5 L 0.203125 663.5 Z M 0.203125 0 " clip-rule="nonzero"/></clipPath><clipPath id="db38b64811"><path d="M 299 543 L 557 543 L 557 663.5 L 299 663.5 Z M 299 543 " clip-rule="nonzero"/></clipPath><clipPath id="ee9f172df0"><path d="M 293 551 L 536 551 L 536 663.5 L 293 663.5 Z M 293 551 " clip-rule="nonzero"/></clipPath><clipPath id="3c10e5d41b"><path d="M 0.203125 498 L 103 498 L 103 663.5 L 0.203125 663.5 Z M 0.203125 498 " clip-rule="nonzero"/></clipPath><clipPath id="e52e565ac3"><path d="M 0.203125 506 L 82 506 L 82 663.5 L 0.203125 663.5 Z M 0.203125 506 " clip-rule="nonzero"/></clipPath><clipPath id="bc9b83a4dc"><path d="M 872 498 L 1079.796875 498 L 1079.796875 663.5 L 872 663.5 Z M 872 498 " clip-rule="nonzero"/></clipPath><clipPath id="a0fc75f0a2"><path d="M 866 506 L 1079.796875 506 L 1079.796875 663.5 L 866 663.5 Z M 866 506 " clip-rule="nonzero"/></clipPath><clipPath id="ef1b936172"><path d="M 0.203125 201 L 66 201 L 66 450 L 0.203125 450 Z M 0.203125 201 " clip-rule="nonzero"/></clipPath><clipPath id="06fd4bb590"><path d="M 0.203125 209 L 45 209 L 45 464 L 0.203125 464 Z M 0.203125 209 " clip-rule="nonzero"/></clipPath><clipPath id="24f5809795"><path d="M 954 177 L 1079.796875 177 L 1079.796875 426 L 954 426 Z M 954 177 " clip-rule="nonzero"/></clipPath><clipPath id="7903e0b3e0"><path d="M 948 185 L 1079.796875 185 L 1079.796875 440 L 948 440 Z M 948 185 " clip-rule="nonzero"/></clipPath></defs><g clip-path="url(#c8e0fe817e)"><path fill="#ffffff" d="M 0.203125 0 L 1079.796875 0 L 1079.796875 663.5 L 0.203125 663.5 Z M 0.203125 0 " fill-opacity="1" fill-rule="nonzero"/><path fill="#d6445b" d="M 0.203125 0 L 1079.796875 0 L 1079.796875 663.5 L 0.203125 663.5 Z M 0.203125 0 " fill-opacity="1" fill-rule="nonzero"/></g><g clip-path="url(#db38b64811)"><path fill="#000000" d="M 505.164062 791.539062 C 503.921875 791.539062 502.71875 791.507812 501.542969 791.441406 C 463.363281 789.582031 428.707031 759.945312 420.945312 722.515625 C 420.421875 720.003906 419.96875 717.398438 419.511719 714.757812 C 417.523438 703.050781 415.433594 690.957031 406.207031 684.921875 C 395.546875 677.914062 380.941406 683.128906 370.570312 688.707031 C 369.105469 689.488281 367.605469 690.335938 366.105469 691.152344 C 355.703125 696.921875 344.910156 702.886719 333.011719 701.683594 C 314.753906 699.824219 303.277344 681.761719 300.308594 665.785156 C 295.058594 637.289062 310.644531 606.019531 336.597656 593.078125 C 351.695312 585.546875 369.886719 584.339844 387.820312 589.75 C 393.328125 591.414062 398.609375 593.988281 403.730469 596.46875 C 409.730469 599.402344 415.925781 602.402344 422.28125 603.804688 C 439.367188 607.585938 452.636719 591.414062 465.449219 575.730469 C 471.777344 568.003906 477.710938 560.734375 483.96875 556.136719 C 497.597656 546.0625 512.464844 541.625 525.898438 543.648438 C 542.039062 546.09375 555.046875 558.875 556.15625 573.382812 C 557.394531 589.71875 544.90625 603.25 534.898438 614.105469 C 525.117188 624.703125 514.324219 638.691406 517.550781 653.070312 C 518.988281 659.394531 523.03125 664.96875 526.976562 670.316406 C 527.824219 671.457031 528.636719 672.597656 529.453125 673.738281 C 542.722656 692.550781 550.449219 715.605469 551.167969 738.589844 C 551.589844 751.894531 549.40625 770.117188 536.59375 781.335938 C 527.269531 789.550781 514.945312 791.539062 505.164062 791.539062 Z M 394.175781 678.273438 C 399.035156 678.273438 403.761719 679.378906 408.035156 682.183594 C 418.433594 689 420.652344 701.8125 422.769531 714.203125 C 423.226562 716.777344 423.652344 719.355469 424.171875 721.832031 C 431.640625 757.859375 464.992188 786.386719 501.738281 788.148438 C 511.324219 788.574219 524.789062 787.367188 534.507812 778.890625 C 546.375 768.554688 548.394531 751.339844 547.972656 738.71875 C 547.253906 716.320312 539.753906 693.921875 526.84375 675.632812 C 526.0625 674.488281 525.214844 673.382812 524.398438 672.238281 C 520.289062 666.597656 516.019531 660.761719 514.453125 653.753906 C 510.902344 637.90625 522.28125 623.039062 532.582031 611.855469 C 542.167969 601.457031 554.101562 588.511719 552.992188 573.613281 C 552.015625 560.796875 539.953125 549.027344 525.507812 546.84375 C 512.953125 544.953125 498.902344 549.160156 485.992188 558.710938 C 480.089844 563.082031 474.253906 570.222656 468.058594 577.753906 C 455.246094 593.402344 440.734375 611.171875 421.664062 606.933594 C 414.914062 605.433594 408.554688 602.335938 402.394531 599.335938 C 397.40625 596.890625 392.222656 594.378906 386.972656 592.816406 C 369.820312 587.664062 352.476562 588.773438 338.128906 595.945312 C 313.449219 608.304688 298.582031 638.039062 303.601562 665.164062 C 306.339844 680 316.839844 696.726562 333.402344 698.421875 C 344.292969 699.496094 354.59375 693.824219 364.570312 688.28125 C 366.070312 687.433594 367.570312 686.617188 369.070312 685.804688 C 376.246094 681.957031 385.375 678.273438 394.175781 678.273438 Z M 394.175781 678.273438 " fill-opacity="1" fill-rule="nonzero"/></g><g clip-path="url(#ee9f172df0)"><path fill="#000000" d="M 459.417969 804.941406 C 444.324219 804.941406 429.195312 800.703125 416.347656 792.453125 C 403.078125 783.941406 393.71875 773.117188 388.472656 760.238281 C 383.253906 747.457031 383.679688 736.046875 384.167969 722.875 C 384.589844 710.972656 386.285156 704.128906 387.65625 698.648438 C 389.089844 692.878906 390.230469 688.347656 389.515625 680.164062 C 388.535156 668.492188 384.886719 647.984375 371.582031 641.691406 C 364.148438 638.167969 358.082031 639.960938 350.390625 642.210938 C 344.097656 644.070312 336.957031 646.15625 327.46875 645.863281 C 310.417969 645.308594 295.191406 630.113281 293.558594 611.988281 C 292.058594 595.621094 301.351562 578.109375 316.644531 568.460938 C 330.207031 559.886719 347.78125 557.015625 366.070312 560.40625 C 377.386719 562.492188 387.265625 567.808594 396.816406 572.960938 C 414.816406 582.644531 430.335938 590.988281 450.417969 575.992188 C 453.320312 573.808594 456.191406 571.425781 458.996094 569.113281 C 466.820312 562.589844 474.90625 555.875 484.914062 552.972656 C 496.71875 549.550781 509.957031 552.289062 519.476562 560.046875 C 528.996094 567.808594 534.277344 580.261719 533.300781 592.488281 C 532.417969 603.511719 526.84375 613.421875 521.433594 622.976562 C 515.269531 633.898438 509.464844 644.199219 510.183594 655.871094 C 510.738281 664.902344 515.300781 673.25 519.738281 681.335938 C 520.84375 683.359375 521.921875 685.347656 522.964844 687.335938 C 534.246094 709.179688 537.832031 732.230469 533.039062 752.25 C 525.964844 781.726562 497.695312 795.550781 489.21875 799.070312 C 479.796875 803.015625 469.625 804.941406 459.417969 804.941406 Z M 363.007812 636.441406 C 366.167969 636.441406 369.464844 637.09375 372.984375 638.753906 C 387.753906 645.765625 391.730469 667.546875 392.773438 679.902344 C 393.523438 688.640625 392.253906 693.660156 390.820312 699.464844 C 389.417969 705.074219 387.851562 711.429688 387.429688 723.003906 C 386.972656 735.820312 386.546875 746.871094 391.503906 759 C 396.492188 771.226562 405.425781 781.53125 418.109375 789.679688 C 438.78125 802.953125 465.546875 805.363281 487.914062 796.070312 C 493.75 793.660156 522.996094 780.191406 529.8125 751.535156 C 534.410156 732.265625 530.921875 709.996094 519.996094 688.867188 C 518.988281 686.878906 517.878906 684.890625 516.800781 682.933594 C 512.203125 674.523438 507.445312 665.851562 506.859375 656.101562 C 506.109375 643.484375 512.433594 632.265625 518.53125 621.410156 C 523.746094 612.148438 529.160156 602.53125 529.972656 592.261719 C 530.886719 581.078125 526.03125 569.699219 517.355469 562.589844 C 508.652344 555.484375 496.554688 553.003906 485.761719 556.136719 C 476.4375 558.84375 468.613281 565.363281 461.046875 571.65625 C 458.210938 574.003906 455.308594 576.414062 452.34375 578.632812 C 430.597656 594.871094 413.414062 585.644531 395.21875 575.863281 C 385.863281 570.839844 376.210938 565.65625 365.421875 563.636719 C 348.171875 560.441406 331.023438 563.210938 318.339844 571.230469 C 304.058594 580.230469 295.386719 596.5 296.789062 611.695312 C 298.253906 627.964844 312.339844 642.113281 327.566406 642.601562 C 336.53125 642.894531 343.410156 640.84375 349.476562 639.082031 C 354.171875 637.710938 358.507812 636.441406 363.007812 636.441406 Z M 363.007812 636.441406 " fill-opacity="1" fill-rule="nonzero"/></g><g clip-path="url(#3c10e5d41b)"><path fill="#000000" d="M 51.585938 746.421875 C 50.347656 746.421875 49.140625 746.386719 47.964844 746.324219 C 9.785156 744.464844 -24.871094 714.828125 -32.632812 677.398438 C -33.152344 674.886719 -33.609375 672.277344 -34.066406 669.636719 C -36.054688 657.933594 -38.140625 645.835938 -47.367188 639.804688 C -58.03125 632.792969 -72.636719 638.011719 -83.003906 643.585938 C -84.472656 644.367188 -85.972656 645.214844 -87.472656 646.03125 C -97.871094 651.800781 -108.664062 657.769531 -120.566406 656.5625 C -138.824219 654.703125 -150.300781 636.640625 -153.269531 620.664062 C -158.515625 592.167969 -142.933594 560.902344 -116.980469 547.957031 C -101.882812 540.425781 -83.691406 539.21875 -65.757812 544.632812 C -60.246094 546.292969 -54.964844 548.871094 -49.847656 551.347656 C -43.847656 554.28125 -37.652344 557.28125 -31.292969 558.683594 C -14.210938 562.464844 -0.941406 546.292969 11.875 530.613281 C 18.199219 522.882812 24.132812 515.613281 30.394531 511.015625 C 44.023438 500.941406 58.890625 496.507812 72.324219 498.527344 C 88.460938 500.972656 101.46875 513.753906 102.578125 528.265625 C 103.816406 544.597656 91.332031 558.128906 81.320312 568.988281 C 71.539062 579.582031 60.746094 593.570312 63.976562 607.949219 C 65.410156 614.273438 69.453125 619.851562 73.398438 625.195312 C 74.246094 626.339844 75.0625 627.480469 75.875 628.621094 C 89.144531 647.433594 96.875 670.484375 97.589844 693.46875 C 98.015625 706.773438 95.832031 725 83.015625 736.214844 C 73.691406 744.429688 61.367188 746.421875 51.585938 746.421875 Z M -59.398438 633.152344 C -54.542969 633.152344 -49.8125 634.261719 -45.542969 637.066406 C -35.140625 643.878906 -32.925781 656.691406 -30.804688 669.082031 C -30.347656 671.65625 -29.925781 674.234375 -29.402344 676.710938 C -21.9375 712.738281 11.417969 741.269531 48.164062 743.027344 C 57.75 743.453125 71.214844 742.246094 80.929688 733.769531 C 92.796875 723.433594 94.820312 706.21875 94.394531 693.601562 C 93.679688 671.203125 86.179688 648.800781 73.269531 630.511719 C 72.484375 629.371094 71.636719 628.261719 70.824219 627.121094 C 66.714844 621.480469 62.441406 615.644531 60.878906 608.632812 C 57.324219 592.789062 68.703125 577.921875 79.007812 566.738281 C 88.59375 556.335938 100.523438 543.390625 99.417969 528.492188 C 98.4375 515.679688 86.375 503.910156 71.929688 501.722656 C 59.378906 499.832031 45.324219 504.039062 32.414062 513.59375 C 26.511719 517.960938 20.675781 525.101562 14.480469 532.632812 C 1.667969 548.28125 -12.839844 566.050781 -31.914062 561.8125 C -38.664062 560.3125 -45.019531 557.214844 -51.183594 554.21875 C -56.171875 551.773438 -61.355469 549.261719 -66.605469 547.695312 C -83.753906 542.542969 -101.101562 543.652344 -115.445312 550.824219 C -140.128906 563.183594 -154.996094 592.917969 -149.976562 620.046875 C -147.234375 634.878906 -136.738281 651.605469 -120.175781 653.300781 C -109.285156 654.378906 -98.980469 648.703125 -89.003906 643.160156 C -87.503906 642.3125 -86.003906 641.5 -84.503906 640.683594 C -77.332031 636.835938 -68.203125 633.152344 -59.398438 633.152344 Z M -59.398438 633.152344 " fill-opacity="1" fill-rule="nonzero"/></g><g clip-path="url(#e52e565ac3)"><path fill="#000000" d="M 5.84375 759.820312 C -9.253906 759.820312 -24.382812 755.582031 -37.230469 747.332031 C -50.5 738.824219 -59.855469 728 -65.105469 715.121094 C -70.320312 702.339844 -69.898438 690.925781 -69.410156 677.753906 C -68.984375 665.855469 -67.289062 659.007812 -65.921875 653.53125 C -64.484375 647.757812 -63.34375 643.226562 -64.0625 635.042969 C -65.039062 623.371094 -68.691406 602.863281 -81.996094 596.570312 C -89.429688 593.050781 -95.492188 594.84375 -103.1875 597.09375 C -109.480469 598.949219 -116.621094 601.035156 -126.109375 600.742188 C -143.160156 600.1875 -158.386719 584.996094 -160.015625 566.867188 C -161.515625 550.5 -152.222656 532.992188 -136.933594 523.339844 C -123.371094 514.765625 -105.796875 511.894531 -87.503906 515.289062 C -76.191406 517.375 -66.3125 522.6875 -56.757812 527.839844 C -38.761719 537.523438 -23.242188 545.871094 -3.15625 530.871094 C -0.253906 528.6875 2.613281 526.308594 5.417969 523.992188 C 13.242188 517.472656 21.328125 510.753906 31.339844 507.855469 C 43.140625 504.429688 56.378906 507.167969 65.898438 514.929688 C 75.417969 522.6875 80.703125 535.144531 79.722656 547.371094 C 78.84375 558.390625 73.269531 568.300781 67.855469 577.855469 C 61.691406 588.777344 55.890625 599.082031 56.605469 610.753906 C 57.160156 619.785156 61.726562 628.132812 66.160156 636.21875 C 67.269531 638.238281 68.34375 640.226562 69.386719 642.214844 C 80.667969 664.0625 84.253906 687.113281 79.460938 707.132812 C 72.386719 736.605469 44.121094 750.429688 35.640625 753.953125 C 26.21875 757.898438 16.046875 759.820312 5.84375 759.820312 Z M -90.570312 591.320312 C -87.40625 591.320312 -84.113281 591.972656 -80.59375 593.636719 C -65.824219 600.644531 -61.84375 622.425781 -60.800781 634.78125 C -60.050781 643.519531 -61.324219 648.542969 -62.757812 654.34375 C -64.160156 659.953125 -65.726562 666.3125 -66.148438 677.886719 C -66.605469 690.699219 -67.027344 701.753906 -62.074219 713.882812 C -57.085938 726.109375 -48.152344 736.410156 -35.46875 744.5625 C -14.796875 757.832031 11.972656 760.246094 34.339844 750.953125 C 40.175781 748.539062 69.421875 735.074219 76.234375 706.414062 C 80.832031 687.144531 77.34375 664.875 66.421875 643.75 C 65.410156 641.761719 64.300781 639.769531 63.226562 637.816406 C 58.628906 629.402344 53.867188 620.730469 53.28125 610.980469 C 52.53125 598.363281 58.855469 587.148438 64.953125 576.289062 C 70.171875 567.03125 75.582031 557.414062 76.398438 547.140625 C 77.3125 535.957031 72.453125 524.578125 63.78125 517.472656 C 55.074219 510.363281 42.976562 507.886719 32.1875 511.015625 C 22.863281 513.722656 15.035156 520.242188 7.472656 526.535156 C 4.636719 528.882812 1.734375 531.296875 -1.234375 533.511719 C -22.980469 549.75 -40.164062 540.523438 -58.355469 530.742188 C -67.714844 525.722656 -77.363281 520.535156 -88.15625 518.515625 C -105.40625 515.320312 -122.554688 518.089844 -135.238281 526.113281 C -149.519531 535.109375 -158.191406 551.378906 -156.789062 566.574219 C -155.320312 582.84375 -141.238281 596.992188 -126.011719 597.484375 C -117.042969 597.777344 -110.164062 595.722656 -104.101562 593.960938 C -99.40625 592.59375 -95.070312 591.320312 -90.570312 591.320312 Z M -90.570312 591.320312 " fill-opacity="1" fill-rule="nonzero"/></g><g clip-path="url(#bc9b83a4dc)"><path fill="#000000" d="M 1078.589844 746.421875 C 1077.351562 746.421875 1076.144531 746.386719 1074.96875 746.324219 C 1036.789062 744.464844 1002.132812 714.828125 994.371094 677.398438 C 993.851562 674.886719 993.394531 672.277344 992.9375 669.636719 C 990.949219 657.933594 988.859375 645.835938 979.632812 639.804688 C 968.972656 632.792969 954.367188 638.011719 943.996094 643.585938 C 942.53125 644.367188 941.03125 645.214844 939.53125 646.03125 C 929.128906 651.800781 918.335938 657.769531 906.4375 656.5625 C 888.179688 654.703125 876.703125 636.640625 873.734375 620.664062 C 868.484375 592.167969 884.070312 560.902344 910.023438 547.957031 C 925.121094 540.425781 943.3125 539.21875 961.246094 544.632812 C 966.753906 546.292969 972.039062 548.871094 977.15625 551.347656 C 983.15625 554.28125 989.351562 557.28125 995.707031 558.683594 C 1012.792969 562.464844 1026.0625 546.292969 1038.875 530.613281 C 1045.203125 522.882812 1051.136719 515.613281 1057.394531 511.015625 C 1071.023438 500.941406 1085.890625 496.507812 1099.324219 498.527344 C 1115.464844 500.972656 1128.472656 513.753906 1129.582031 528.265625 C 1130.820312 544.597656 1118.332031 558.128906 1108.324219 568.988281 C 1098.542969 579.582031 1087.75 593.570312 1090.976562 607.949219 C 1092.414062 614.273438 1096.457031 619.851562 1100.402344 625.195312 C 1101.25 626.339844 1102.0625 627.480469 1102.878906 628.621094 C 1116.148438 647.433594 1123.875 670.484375 1124.59375 693.46875 C 1125.015625 706.773438 1122.832031 725 1110.019531 736.214844 C 1100.695312 744.429688 1088.371094 746.421875 1078.589844 746.421875 Z M 967.601562 633.152344 C 972.460938 633.152344 977.1875 634.261719 981.460938 637.066406 C 991.859375 643.878906 994.078125 656.691406 996.195312 669.082031 C 996.652344 671.65625 997.078125 674.234375 997.597656 676.710938 C 1005.066406 712.738281 1038.421875 741.269531 1075.164062 743.027344 C 1084.75 743.453125 1098.214844 742.246094 1107.933594 733.769531 C 1119.800781 723.433594 1121.820312 706.21875 1121.398438 693.601562 C 1120.679688 671.203125 1113.183594 648.800781 1100.269531 630.511719 C 1099.488281 629.371094 1098.640625 628.261719 1097.824219 627.121094 C 1093.71875 621.480469 1089.445312 615.644531 1087.882812 608.632812 C 1084.328125 592.789062 1095.707031 577.921875 1106.007812 566.738281 C 1115.59375 556.335938 1127.527344 543.390625 1126.417969 528.492188 C 1125.441406 515.679688 1113.378906 503.910156 1098.933594 501.722656 C 1086.382812 499.832031 1072.328125 504.039062 1059.417969 513.59375 C 1053.515625 517.960938 1047.679688 525.101562 1041.484375 532.632812 C 1028.671875 548.28125 1014.164062 566.050781 995.089844 561.8125 C 988.339844 560.3125 981.980469 557.214844 975.820312 554.21875 C 970.832031 551.773438 965.648438 549.261719 960.398438 547.695312 C 943.246094 542.542969 925.902344 543.652344 911.554688 550.824219 C 886.875 563.183594 872.007812 592.917969 877.027344 620.046875 C 879.765625 634.878906 890.265625 651.605469 906.828125 653.300781 C 917.71875 654.378906 928.019531 648.703125 938 643.160156 C 939.5 642.3125 940.996094 641.5 942.496094 640.683594 C 949.671875 636.835938 958.800781 633.152344 967.601562 633.152344 Z M 967.601562 633.152344 " fill-opacity="1" fill-rule="nonzero"/></g><g clip-path="url(#a0fc75f0a2)"><path fill="#000000" d="M 1032.84375 759.820312 C 1017.75 759.820312 1002.621094 755.582031 989.773438 747.332031 C 976.503906 738.824219 967.148438 728 961.898438 715.121094 C 956.679688 702.339844 957.105469 690.925781 957.59375 677.753906 C 958.015625 665.855469 959.714844 659.007812 961.082031 653.53125 C 962.515625 647.757812 963.65625 643.226562 962.941406 635.042969 C 961.960938 623.371094 958.3125 602.863281 945.007812 596.570312 C 937.574219 593.050781 931.511719 594.84375 923.816406 597.09375 C 917.523438 598.949219 910.382812 601.035156 900.894531 600.742188 C 883.84375 600.1875 868.617188 584.996094 866.984375 566.867188 C 865.484375 550.5 874.777344 532.992188 890.070312 523.339844 C 903.632812 514.765625 921.207031 511.894531 939.5 515.289062 C 950.8125 517.375 960.691406 522.6875 970.242188 527.839844 C 988.242188 537.523438 1003.761719 545.871094 1023.847656 530.871094 C 1026.746094 528.6875 1029.617188 526.308594 1032.421875 523.992188 C 1040.246094 517.472656 1048.332031 510.753906 1058.339844 507.855469 C 1070.144531 504.429688 1083.382812 507.167969 1092.902344 514.929688 C 1102.421875 522.6875 1107.703125 535.144531 1106.726562 547.371094 C 1105.847656 558.390625 1100.269531 568.300781 1094.859375 577.855469 C 1088.695312 588.777344 1082.890625 599.082031 1083.609375 610.753906 C 1084.164062 619.785156 1088.730469 628.132812 1093.164062 636.21875 C 1094.269531 638.238281 1095.347656 640.226562 1096.390625 642.214844 C 1107.671875 664.0625 1111.257812 687.113281 1106.464844 707.132812 C 1099.390625 736.605469 1071.121094 750.429688 1062.644531 753.953125 C 1053.222656 757.898438 1043.050781 759.820312 1032.84375 759.820312 Z M 936.433594 591.320312 C 939.597656 591.320312 942.890625 591.972656 946.410156 593.636719 C 961.179688 600.644531 965.15625 622.425781 966.203125 634.78125 C 966.949219 643.519531 965.679688 648.542969 964.246094 654.34375 C 962.84375 659.953125 961.277344 666.3125 960.855469 677.886719 C 960.398438 690.699219 959.972656 701.753906 964.929688 713.882812 C 969.917969 726.109375 978.851562 736.410156 991.535156 744.5625 C 1012.207031 757.832031 1038.972656 760.246094 1061.339844 750.953125 C 1067.175781 748.539062 1096.421875 735.074219 1103.238281 706.414062 C 1107.835938 687.144531 1104.347656 664.875 1093.421875 643.75 C 1092.414062 641.761719 1091.304688 639.769531 1090.226562 637.816406 C 1085.632812 629.402344 1080.871094 620.730469 1080.285156 610.980469 C 1079.535156 598.363281 1085.859375 587.148438 1091.957031 576.289062 C 1097.171875 567.03125 1102.585938 557.414062 1103.402344 547.140625 C 1104.3125 535.957031 1099.457031 524.578125 1090.78125 517.472656 C 1082.078125 510.363281 1069.980469 507.886719 1059.1875 511.015625 C 1049.863281 513.722656 1042.039062 520.242188 1034.476562 526.535156 C 1031.636719 528.882812 1028.738281 531.296875 1025.769531 533.511719 C 1004.023438 549.75 986.839844 540.523438 968.644531 530.742188 C 959.289062 525.722656 949.636719 520.535156 938.847656 518.515625 C 921.597656 515.320312 904.449219 518.089844 891.765625 526.113281 C 877.484375 535.109375 868.8125 551.378906 870.214844 566.574219 C 871.679688 582.84375 885.765625 596.992188 900.992188 597.484375 C 909.957031 597.777344 916.839844 595.722656 922.902344 593.960938 C 927.597656 592.59375 931.933594 591.320312 936.433594 591.320312 Z M 936.433594 591.320312 " fill-opacity="1" fill-rule="nonzero"/></g><g clip-path="url(#ef1b936172)"><path fill="#000000" d="M 14.125 449.910156 C 12.886719 449.910156 11.679688 449.875 10.507812 449.8125 C -27.671875 447.953125 -62.332031 418.316406 -70.09375 380.886719 C -70.613281 378.375 -71.070312 375.765625 -71.527344 373.125 C -73.515625 361.421875 -75.601562 349.324219 -84.828125 343.292969 C -95.492188 336.28125 -110.097656 341.5 -120.464844 347.074219 C -121.933594 347.855469 -123.433594 348.703125 -124.933594 349.519531 C -135.332031 355.289062 -146.125 361.257812 -158.027344 360.050781 C -176.285156 358.191406 -187.761719 340.128906 -190.726562 324.152344 C -195.976562 295.65625 -180.394531 264.390625 -154.441406 251.445312 C -139.34375 243.914062 -121.148438 242.707031 -103.21875 248.121094 C -97.707031 249.78125 -92.425781 252.359375 -87.308594 254.835938 C -81.308594 257.769531 -75.113281 260.769531 -68.753906 262.171875 C -51.671875 265.953125 -38.398438 249.78125 -25.585938 234.101562 C -19.261719 226.371094 -13.328125 219.101562 -7.066406 214.503906 C 6.5625 204.429688 21.429688 199.996094 34.863281 202.015625 C 51 204.460938 64.011719 217.242188 65.117188 231.753906 C 66.359375 248.085938 53.871094 261.617188 43.859375 272.476562 C 34.078125 283.070312 23.289062 297.058594 26.515625 311.4375 C 27.949219 317.761719 31.992188 323.339844 35.9375 328.683594 C 36.785156 329.828125 37.601562 330.96875 38.414062 332.109375 C 51.6875 350.921875 59.414062 373.972656 60.128906 396.957031 C 60.554688 410.261719 58.371094 428.488281 45.554688 439.703125 C 36.230469 447.917969 23.90625 449.910156 14.125 449.910156 Z M -96.859375 336.640625 C -92.003906 336.640625 -87.273438 337.75 -83.003906 340.554688 C -72.601562 347.367188 -70.386719 360.179688 -68.265625 372.570312 C -67.808594 375.148438 -67.386719 377.722656 -66.863281 380.199219 C -59.398438 416.226562 -26.042969 444.757812 10.703125 446.519531 C 20.289062 446.941406 33.753906 445.734375 43.46875 437.257812 C 55.335938 426.921875 57.359375 409.707031 56.933594 397.089844 C 56.21875 374.691406 48.71875 352.289062 35.808594 334 C 35.023438 332.859375 34.175781 331.75 33.363281 330.609375 C 29.253906 324.96875 24.984375 319.132812 23.417969 312.121094 C 19.863281 296.277344 31.242188 281.410156 41.546875 270.226562 C 51.132812 259.824219 63.066406 246.878906 61.957031 231.980469 C 60.976562 219.167969 48.914062 207.398438 34.46875 205.210938 C 21.917969 203.320312 7.867188 207.527344 -5.046875 217.082031 C -10.949219 221.449219 -16.785156 228.589844 -22.976562 236.121094 C -35.792969 251.769531 -50.300781 269.539062 -69.375 265.300781 C -76.125 263.800781 -82.480469 260.703125 -88.644531 257.707031 C -93.632812 255.261719 -98.816406 252.75 -104.066406 251.183594 C -121.214844 246.03125 -138.5625 247.140625 -152.90625 254.316406 C -177.589844 266.671875 -192.457031 296.40625 -187.433594 323.535156 C -184.695312 338.367188 -174.199219 355.09375 -157.632812 356.789062 C -146.746094 357.867188 -136.441406 352.191406 -126.464844 346.648438 C -124.964844 345.800781 -123.464844 344.988281 -121.964844 344.171875 C -114.792969 340.324219 -105.664062 336.640625 -96.859375 336.640625 Z M -96.859375 336.640625 " fill-opacity="1" fill-rule="nonzero"/></g><g clip-path="url(#06fd4bb590)"><path fill="#000000" d="M -31.617188 463.308594 C -46.714844 463.308594 -61.84375 459.070312 -74.6875 450.820312 C -87.960938 442.3125 -97.316406 431.488281 -102.566406 418.609375 C -107.78125 405.828125 -107.359375 394.414062 -106.871094 381.242188 C -106.445312 369.34375 -104.75 362.496094 -103.382812 357.019531 C -101.945312 351.246094 -100.804688 346.714844 -101.523438 338.53125 C -102.5 326.859375 -106.152344 306.351562 -119.453125 300.058594 C -126.890625 296.539062 -132.953125 298.332031 -140.648438 300.582031 C -146.941406 302.4375 -154.082031 304.523438 -163.570312 304.230469 C -180.621094 303.675781 -195.847656 288.484375 -197.476562 270.355469 C -198.976562 253.988281 -189.683594 236.480469 -174.394531 226.828125 C -160.828125 218.253906 -143.257812 215.386719 -124.964844 218.777344 C -113.652344 220.863281 -103.773438 226.175781 -94.21875 231.328125 C -76.222656 241.011719 -60.703125 249.359375 -40.617188 234.359375 C -37.714844 232.175781 -34.847656 229.796875 -32.042969 227.480469 C -24.21875 220.960938 -16.132812 214.242188 -6.121094 211.34375 C 5.679688 207.917969 18.917969 210.65625 28.4375 218.417969 C 37.960938 226.175781 43.242188 238.632812 42.261719 250.859375 C 41.382812 261.878906 35.808594 271.789062 30.394531 281.34375 C 24.234375 292.265625 18.429688 302.570312 19.144531 314.242188 C 19.699219 323.273438 24.265625 331.621094 28.699219 339.707031 C 29.808594 341.726562 30.882812 343.714844 31.925781 345.703125 C 43.207031 367.550781 46.796875 390.601562 42.003906 410.621094 C 34.925781 440.09375 6.660156 453.917969 -1.816406 457.441406 C -11.242188 461.386719 -21.414062 463.308594 -31.617188 463.308594 Z M -128.03125 294.808594 C -124.867188 294.808594 -121.574219 295.460938 -118.054688 297.125 C -103.28125 304.132812 -99.304688 325.914062 -98.261719 338.269531 C -97.511719 347.007812 -98.785156 352.03125 -100.21875 357.832031 C -101.621094 363.441406 -103.183594 369.800781 -103.609375 381.375 C -104.066406 394.1875 -104.488281 405.242188 -99.535156 417.371094 C -94.546875 429.597656 -85.613281 439.898438 -72.929688 448.050781 C -52.257812 461.320312 -25.488281 463.734375 -3.121094 454.441406 C 2.714844 452.027344 31.960938 438.5625 38.773438 409.902344 C 43.371094 390.632812 39.882812 368.363281 28.960938 347.238281 C 27.949219 345.25 26.839844 343.257812 25.765625 341.304688 C 21.167969 332.890625 16.40625 324.21875 15.820312 314.46875 C 15.070312 301.851562 21.394531 290.636719 27.492188 279.777344 C 32.710938 270.519531 38.121094 260.902344 38.9375 250.628906 C 39.851562 239.445312 34.992188 228.066406 26.320312 220.960938 C 17.613281 213.851562 5.519531 211.375 -5.273438 214.503906 C -14.597656 217.210938 -22.425781 223.730469 -29.988281 230.023438 C -32.824219 232.371094 -35.726562 234.785156 -38.695312 237 C -60.441406 253.238281 -77.625 244.011719 -95.816406 234.230469 C -105.175781 229.210938 -114.824219 224.023438 -125.617188 222.003906 C -142.863281 218.808594 -160.015625 221.578125 -172.699219 229.601562 C -186.980469 238.597656 -195.652344 254.867188 -194.25 270.0625 C -192.78125 286.332031 -178.695312 300.480469 -163.472656 300.972656 C -154.503906 301.265625 -147.625 299.210938 -141.5625 297.449219 C -136.867188 296.082031 -132.53125 294.808594 -128.03125 294.808594 Z M -128.03125 294.808594 " fill-opacity="1" fill-rule="nonzero"/></g><g clip-path="url(#24f5809795)"><path fill="#000000" d="M 1160.070312 425.851562 C 1158.828125 425.851562 1157.625 425.820312 1156.449219 425.753906 C 1118.269531 423.894531 1083.613281 394.257812 1075.851562 356.828125 C 1075.328125 354.320312 1074.875 351.710938 1074.417969 349.070312 C 1072.429688 337.363281 1070.339844 325.269531 1061.113281 319.234375 C 1050.453125 312.226562 1035.847656 317.441406 1025.476562 323.019531 C 1024.011719 323.800781 1022.511719 324.648438 1021.011719 325.464844 C 1010.609375 331.234375 999.816406 337.199219 987.917969 335.996094 C 969.660156 334.136719 958.183594 316.074219 955.214844 300.097656 C 949.964844 271.601562 965.550781 240.332031 991.503906 227.390625 C 1006.601562 219.859375 1024.792969 218.652344 1042.726562 224.0625 C 1048.234375 225.726562 1053.519531 228.300781 1058.636719 230.78125 C 1064.636719 233.714844 1070.832031 236.714844 1077.1875 238.117188 C 1094.273438 241.898438 1107.542969 225.726562 1120.355469 210.042969 C 1126.683594 202.316406 1132.617188 195.046875 1138.875 190.449219 C 1152.503906 180.375 1167.371094 175.941406 1180.804688 177.960938 C 1196.945312 180.40625 1209.953125 193.1875 1211.0625 207.695312 C 1212.300781 224.03125 1199.8125 237.5625 1189.804688 248.417969 C 1180.023438 259.015625 1169.230469 273.003906 1172.457031 287.382812 C 1173.894531 293.707031 1177.9375 299.28125 1181.882812 304.628906 C 1182.730469 305.769531 1183.542969 306.910156 1184.359375 308.054688 C 1197.628906 326.867188 1205.355469 349.917969 1206.074219 372.902344 C 1206.496094 386.207031 1204.3125 404.429688 1191.5 415.648438 C 1182.175781 423.863281 1169.851562 425.851562 1160.070312 425.851562 Z M 1049.082031 312.585938 C 1053.941406 312.585938 1058.667969 313.691406 1062.941406 316.496094 C 1073.339844 323.3125 1075.558594 336.125 1077.675781 348.515625 C 1078.132812 351.089844 1078.558594 353.667969 1079.078125 356.144531 C 1086.546875 392.171875 1119.898438 420.699219 1156.644531 422.460938 C 1166.230469 422.886719 1179.695312 421.679688 1189.414062 413.203125 C 1201.28125 402.867188 1203.300781 385.652344 1202.878906 373.035156 C 1202.160156 350.632812 1194.664062 328.234375 1181.75 309.945312 C 1180.96875 308.800781 1180.121094 307.695312 1179.304688 306.554688 C 1175.195312 300.914062 1170.925781 295.078125 1169.359375 288.066406 C 1165.808594 272.21875 1177.1875 257.351562 1187.488281 246.167969 C 1197.074219 235.769531 1209.007812 222.824219 1207.898438 207.925781 C 1206.921875 195.109375 1194.859375 183.339844 1180.414062 181.15625 C 1167.859375 179.265625 1153.808594 183.472656 1140.898438 193.023438 C 1134.996094 197.394531 1129.160156 204.535156 1122.964844 212.066406 C 1110.152344 227.714844 1095.640625 245.484375 1076.570312 241.246094 C 1069.820312 239.746094 1063.460938 236.648438 1057.300781 233.648438 C 1052.3125 231.203125 1047.128906 228.695312 1041.878906 227.128906 C 1024.726562 221.976562 1007.382812 223.085938 993.035156 230.257812 C 968.355469 242.617188 953.488281 272.351562 958.507812 299.476562 C 961.246094 314.3125 971.746094 331.039062 988.308594 332.734375 C 999.199219 333.808594 1009.5 328.136719 1019.480469 322.59375 C 1020.976562 321.746094 1022.476562 320.929688 1023.976562 320.117188 C 1031.152344 316.269531 1040.28125 312.585938 1049.082031 312.585938 Z M 1049.082031 312.585938 " fill-opacity="1" fill-rule="nonzero"/></g><g clip-path="url(#7903e0b3e0)"><path fill="#000000" d="M 1114.324219 439.253906 C 1099.230469 439.253906 1084.101562 435.015625 1071.253906 426.765625 C 1057.984375 418.253906 1048.625 407.429688 1043.378906 394.550781 C 1038.160156 381.769531 1038.585938 370.359375 1039.074219 357.1875 C 1039.496094 345.285156 1041.191406 338.441406 1042.5625 332.960938 C 1043.996094 327.191406 1045.136719 322.660156 1044.421875 314.476562 C 1043.441406 302.804688 1039.792969 282.296875 1026.488281 276.003906 C 1019.054688 272.480469 1012.992188 274.273438 1005.296875 276.523438 C 999.003906 278.382812 991.863281 280.46875 982.375 280.175781 C 965.324219 279.621094 950.097656 264.429688 948.464844 246.300781 C 946.964844 229.933594 956.257812 212.425781 971.550781 202.773438 C 985.113281 194.199219 1002.6875 191.328125 1020.976562 194.71875 C 1032.292969 196.804688 1042.171875 202.121094 1051.722656 207.273438 C 1069.722656 216.957031 1085.242188 225.304688 1105.324219 210.304688 C 1108.226562 208.121094 1111.097656 205.738281 1113.902344 203.425781 C 1121.726562 196.90625 1129.8125 190.1875 1139.820312 187.285156 C 1151.625 183.863281 1164.863281 186.601562 1174.382812 194.359375 C 1183.902344 202.121094 1189.183594 214.574219 1188.207031 226.800781 C 1187.324219 237.824219 1181.75 247.734375 1176.339844 257.289062 C 1170.175781 268.210938 1164.371094 278.511719 1165.089844 290.1875 C 1165.644531 299.21875 1170.207031 307.5625 1174.644531 315.648438 C 1175.75 317.671875 1176.828125 319.660156 1177.871094 321.648438 C 1189.152344 343.492188 1192.738281 366.546875 1187.945312 386.5625 C 1180.871094 416.039062 1152.601562 429.863281 1144.125 433.382812 C 1134.703125 437.328125 1124.53125 439.253906 1114.324219 439.253906 Z M 1017.914062 270.753906 C 1021.074219 270.753906 1024.371094 271.40625 1027.890625 273.066406 C 1042.660156 280.078125 1046.636719 301.859375 1047.679688 314.214844 C 1048.429688 322.953125 1047.160156 327.972656 1045.726562 333.777344 C 1044.324219 339.386719 1042.757812 345.742188 1042.335938 357.316406 C 1041.878906 370.132812 1041.453125 381.183594 1046.410156 393.3125 C 1051.398438 405.539062 1060.332031 415.84375 1073.015625 423.992188 C 1093.6875 437.265625 1120.453125 439.675781 1142.820312 430.382812 C 1148.65625 427.972656 1177.902344 414.507812 1184.71875 385.847656 C 1189.316406 366.578125 1185.828125 344.308594 1174.902344 323.179688 C 1173.894531 321.191406 1172.785156 319.203125 1171.707031 317.246094 C 1167.113281 308.835938 1162.351562 300.164062 1161.765625 290.414062 C 1161.015625 277.796875 1167.339844 266.578125 1173.4375 255.722656 C 1178.652344 246.464844 1184.066406 236.84375 1184.878906 226.574219 C 1185.792969 215.390625 1180.9375 204.011719 1172.261719 196.902344 C 1163.558594 189.796875 1151.460938 187.320312 1140.667969 190.449219 C 1131.34375 193.15625 1123.519531 199.675781 1115.953125 205.96875 C 1113.117188 208.316406 1110.214844 210.730469 1107.25 212.945312 C 1085.503906 229.183594 1068.320312 219.957031 1050.125 210.175781 C 1040.769531 205.152344 1031.117188 199.96875 1020.328125 197.949219 C 1003.078125 194.753906 985.929688 197.523438 973.246094 205.542969 C 958.964844 214.542969 950.292969 230.8125 951.695312 246.007812 C 953.160156 262.277344 967.246094 276.425781 982.472656 276.914062 C 991.4375 277.207031 998.316406 275.15625 1004.382812 273.394531 C 1009.078125 272.023438 1013.414062 270.753906 1017.914062 270.753906 Z M 1017.914062 270.753906 " fill-opacity="1" fill-rule="nonzero"/></g></svg>